<?xml version="1.0"?>
<svg xmlns="http://www.w3.org/2000/svg" height="512px" viewBox="0 0 496 496" width="512px"><g><path d="m344 128h-192c-8.824219 0-16 7.175781-16 16v48c0 5.894531 3.238281 11 8 13.777344v20.445312c-4.761719 2.777344-8 7.882813-8 13.777344v48c0 5.894531 3.238281 11 8 13.777344v20.445312c-4.761719 2.777344-8 7.882813-8 13.777344v48c0 5.894531 3.238281 11 8 13.777344v20.445312c-4.761719 2.777344-8 7.882813-8 13.777344v48c0 8.824219 7.175781 16 16 16h192c8.824219 0 16-7.175781 16-16v-48c0-5.894531-3.238281-11-8-13.777344v-20.445312c4.761719-2.777344 8-7.882813 8-13.777344v-48c0-5.894531-3.238281-11-8-13.777344v-20.445312c4.761719-2.777344 8-7.882813 8-13.777344v-48c0-5.894531-3.238281-11-8-13.777344v-20.445312c4.761719-2.777344 8-7.882813 8-13.777344v-48c0-8.824219-7.175781-16-16-16zm-192 16h192l.007812 48h-192.007812zm8 272v-16h176v16zm-8-32v-48h192l.007812 48zm8-64v-16h176v16zm-8-32v-48h192l.007812 48zm8-64v-16h176v16zm-8 256v-48h192l.007812 48zm0 0" data-original="#000000" class="active-path" data-old_color="#000000" fill="#3B6D93"/><path d="m72 368h16v16h-16zm0 0" data-original="#000000" class="active-path" data-old_color="#000000" fill="#3B6D93"/><path d="m72 400h16v16h-16zm0 0" data-original="#000000" class="active-path" data-old_color="#000000" fill="#3B6D93"/><path d="m408 368h16v16h-16zm0 0" data-original="#000000" class="active-path" data-old_color="#000000" fill="#3B6D93"/><path d="m424 320h25.472656c3.3125 9.289062 12.113282 16 22.527344 16 13.230469 0 24-10.769531 24-24s-10.769531-24-24-24c-10.414062 0-19.214844 6.710938-22.527344 16h-25.472656v-64h8c35.289062 0 64-28.710938 64-64 0-29.792969-20.488281-54.816406-48.097656-61.921875.019531-.695313.097656-1.375.097656-2.078125 0-52.9375-43.0625-96-96-96-27.632812 0-53.792969 12-71.910156 32.488281-22.105469-29.496093-57.28125-48.488281-96.089844-48.488281-63.472656 0-115.457031 49.574219-119.59375 112.023438-.132812-.007813-.269531-.023438-.40625-.023438-35.289062 0-64 28.710938-64 64s28.710938 64 64 64h8v64h-25.472656c-3.3125-9.289062-12.113282-16-22.527344-16-13.230469 0-24 10.769531-24 24s10.769531 24 24 24c10.414062 0 19.214844-6.710938 22.527344-16h25.472656v32h16v-72h16v184h-16v-32h-16v32h-25.472656c-3.3125-9.289062-12.113282-16-22.527344-16-13.230469 0-24 10.769531-24 24s10.769531 24 24 24c10.414062 0 19.214844-6.710938 22.527344-16h57.472656v16h16v-288h-16v56h-16v-40h-24c-26.472656 0-48-21.527344-48-48s21.527344-48 48-48c13.007812 0 25.183594 5.121094 34.289062 14.40625l11.429688-11.191406c-8.222656-8.398438-18.359375-14.167969-29.421875-17.054688 3.054687-54.625 48.328125-98.160156 103.703125-98.160156 51.414062 0 95.671875 38.320312 102.953125 89.136719l15.832031-2.265625c-2.074218-14.464844-6.761718-28.039063-13.503906-40.304688 15.132812-19.152344 38.199219-30.566406 62.71875-30.566406 44.113281 0 80 35.886719 80 80-17.34375 0-33.585938 6.824219-45.71875 19.214844l11.429688 11.191406c9.105468-9.285156 21.28125-14.40625 34.289062-14.40625 26.472656 0 48 21.527344 48 48s-21.527344 48-48 48h-24v40h-16v-56h-16v288h16v-16h57.472656c3.3125 9.289062 12.113282 16 22.527344 16 13.230469 0 24-10.769531 24-24s-10.769531-24-24-24c-10.414062 0-19.214844 6.710938-22.527344 16h-25.472656v-32h-16v32h-16v-184h16v72h16zm48-16c4.40625 0 8 3.585938 8 8s-3.59375 8-8 8-8-3.585938-8-8 3.59375-8 8-8zm-448 16c-4.40625 0-8-3.585938-8-8s3.59375-8 8-8 8 3.585938 8 8-3.59375 8-8 8zm0 160c-4.40625 0-8-3.585938-8-8s3.59375-8 8-8 8 3.585938 8 8-3.59375 8-8 8zm448-16c4.40625 0 8 3.585938 8 8s-3.59375 8-8 8-8-3.585938-8-8 3.59375-8 8-8zm0 0" data-original="#000000" class="active-path" data-old_color="#000000" fill="#3B6D93"/><path d="m408 400h16v16h-16zm0 0" data-original="#000000" class="active-path" data-old_color="#000000" fill="#3B6D93"/><path d="m168 160h16v16h-16zm0 0" data-original="#000000" class="active-path" data-old_color="#000000" fill="#3B6D93"/><path d="m200 160h16v16h-16zm0 0" data-original="#000000" class="active-path" data-old_color="#000000" fill="#3B6D93"/><path d="m280 256h16v16h-16zm0 0" data-original="#000000" class="active-path" data-old_color="#000000" fill="#3B6D93"/><path d="m312 256h16v16h-16zm0 0" data-original="#000000" class="active-path" data-old_color="#000000" fill="#3B6D93"/><path d="m160 352h16v16h-16zm0 0" data-original="#000000" class="active-path" data-old_color="#000000" fill="#3B6D93"/><path d="m192 352h16v16h-16zm0 0" data-original="#000000" class="active-path" data-old_color="#000000" fill="#3B6D93"/><path d="m280 448h16v16h-16zm0 0" data-original="#000000" class="active-path" data-old_color="#000000" fill="#3B6D93"/><path d="m312 448h16v16h-16zm0 0" data-original="#000000" class="active-path" data-old_color="#000000" fill="#3B6D93"/></g> </svg>
